<svg xmlns="http://www.w3.org/2000/svg" xmlns:xlink="http://www.w3.org/1999/xlink" width="266" zoomAndPan="magnify" viewBox="0 0 199.5 62.249996" height="83" preserveAspectRatio="xMidYMid meet" version="1.0"><defs><g/><clipPath id="6805f01851"><path d="M 76.011719 9.179688 L 193.9375 9.179688 L 193.9375 52.429688 L 76.011719 52.429688 Z M 76.011719 9.179688 " clip-rule="nonzero"/></clipPath><clipPath id="05f5d3bb32"><path d="M 107.941406 9.179688 L 187.664062 9.179688 C 189.789062 9.179688 191.75 10.316406 192.800781 12.164062 C 193.855469 14.007812 193.835938 16.277344 192.753906 18.105469 L 177.714844 43.5 C 174.4375 49.035156 168.484375 52.429688 162.050781 52.429688 L 82.328125 52.429688 C 80.207031 52.429688 78.246094 51.289062 77.191406 49.445312 C 76.140625 47.597656 76.160156 45.328125 77.242188 43.5 L 92.28125 18.105469 C 95.558594 12.570312 101.511719 9.179688 107.941406 9.179688 Z M 107.941406 9.179688 " clip-rule="nonzero"/></clipPath></defs><g clip-path="url(#6805f01851)"><g clip-path="url(#05f5d3bb32)"><path fill="#5800ff" d="M 71.953125 9.179688 L 197.992188 9.179688 L 197.992188 52.429688 L 71.953125 52.429688 Z M 71.953125 9.179688 " fill-opacity="1" fill-rule="nonzero"/></g></g><g fill="#ffffff" fill-opacity="1"><g transform="translate(88.120681, 45.149407)"><g><path d="M 30.5625 0 L 24.84375 0 L 24.796875 -16.578125 L 18.6875 -2.546875 L 14.453125 -2.546875 L 8.34375 -16.578125 L 8.34375 0 L 2.546875 0 L 2.546875 -25.53125 L 9.65625 -25.53125 L 16.578125 -10.34375 L 23.484375 -25.53125 L 30.5625 -25.53125 Z M 30.5625 0 "/></g></g></g><g fill="#ffffff" fill-opacity="1"><g transform="translate(119.189505, 45.149407)"><g><path d="M 11.328125 -19.921875 C 14.023438 -19.921875 16.117188 -19.296875 17.609375 -18.046875 C 19.097656 -16.796875 19.859375 -15.054688 19.890625 -12.828125 L 19.890625 0 L 13.734375 0 L 13.734375 -2.265625 C 12.441406 -0.554688 10.4375 0.296875 7.71875 0.296875 C 5.65625 0.296875 4.015625 -0.269531 2.796875 -1.40625 C 1.585938 -2.550781 0.984375 -4.035156 0.984375 -5.859375 C 0.984375 -7.734375 1.628906 -9.1875 2.921875 -10.21875 C 4.222656 -11.25 6.085938 -11.773438 8.515625 -11.796875 L 13.6875 -11.796875 L 13.6875 -12.09375 C 13.6875 -13.0625 13.363281 -13.816406 12.71875 -14.359375 C 12.082031 -14.910156 11.132812 -15.1875 9.875 -15.1875 C 8.101562 -15.1875 6.144531 -14.640625 4 -13.546875 L 2.21875 -17.703125 C 5.40625 -19.179688 8.441406 -19.921875 11.328125 -19.921875 Z M 9.65625 -3.96875 C 10.644531 -3.96875 11.515625 -4.21875 12.265625 -4.71875 C 13.023438 -5.21875 13.5 -5.867188 13.6875 -6.671875 L 13.6875 -8.40625 L 9.71875 -8.40625 C 7.832031 -8.40625 6.890625 -7.703125 6.890625 -6.296875 C 6.890625 -5.566406 7.128906 -4.992188 7.609375 -4.578125 C 8.097656 -4.171875 8.78125 -3.96875 9.65625 -3.96875 Z M 9.65625 -3.96875 "/></g></g></g><g fill="#ffffff" fill-opacity="1"><g transform="translate(138.967124, 45.149407)"><g><path d="M 13.953125 -5.421875 L 15.1875 -1.0625 C 13.65625 -0.15625 11.90625 0.296875 9.9375 0.296875 C 8 0.296875 6.425781 -0.242188 5.21875 -1.328125 C 4.019531 -2.410156 3.421875 -3.945312 3.421875 -5.9375 L 3.421875 -14.609375 L 0.6875 -14.609375 L 0.6875 -18.71875 L 3.421875 -18.71875 L 3.421875 -24.1875 L 9.6875 -24.1875 L 9.6875 -18.75 L 14.828125 -18.75 L 14.828125 -14.609375 L 9.6875 -14.609375 L 9.6875 -6.921875 C 9.6875 -6.171875 9.835938 -5.617188 10.140625 -5.265625 C 10.441406 -4.910156 10.898438 -4.742188 11.515625 -4.765625 C 12.097656 -4.765625 12.910156 -4.984375 13.953125 -5.421875 Z M 13.953125 -5.421875 "/></g></g></g><g fill="#ffffff" fill-opacity="1"><g transform="translate(152.7349, 45.149407)"><g><path d="M 11.109375 -19.84375 C 14.503906 -19.84375 17.054688 -18.796875 18.765625 -16.703125 C 20.484375 -14.617188 21.234375 -11.757812 21.015625 -8.125 L 7.21875 -8.125 C 7.53125 -6.957031 8.085938 -6.054688 8.890625 -5.421875 C 9.691406 -4.796875 10.675781 -4.484375 11.84375 -4.484375 C 13.632812 -4.484375 15.195312 -5.148438 16.53125 -6.484375 L 19.84375 -3.234375 C 17.738281 -0.929688 14.890625 0.21875 11.296875 0.21875 C 8.109375 0.21875 5.570312 -0.691406 3.6875 -2.515625 C 1.8125 -4.335938 0.875 -6.753906 0.875 -9.765625 C 0.875 -12.796875 1.8125 -15.234375 3.6875 -17.078125 C 5.570312 -18.921875 8.046875 -19.84375 11.109375 -19.84375 Z M 7.109375 -11.515625 L 14.96875 -11.515625 C 14.96875 -12.703125 14.617188 -13.660156 13.921875 -14.390625 C 13.234375 -15.117188 12.320312 -15.484375 11.1875 -15.484375 C 10.113281 -15.484375 9.210938 -15.125 8.484375 -14.40625 C 7.753906 -13.6875 7.296875 -12.722656 7.109375 -11.515625 Z M 7.109375 -11.515625 "/></g></g></g><g fill="#5800ff" fill-opacity="1"><g transform="translate(9.859192, 45.149407)"><g><path d="M 9.03125 -5.421875 L 19.84375 -5.421875 L 19.84375 0 L 2.546875 0 L 2.546875 -25.5 L 9.03125 -25.5 Z M 9.03125 -5.421875 "/></g></g></g><g fill="#5800ff" fill-opacity="1"><g transform="translate(28.179882, 45.149407)"><g><path d="M 3.296875 -27.65625 C 3.910156 -28.28125 4.703125 -28.59375 5.671875 -28.59375 C 6.648438 -28.59375 7.445312 -28.28125 8.0625 -27.65625 C 8.6875 -27.039062 9 -26.242188 9 -25.265625 C 9 -24.296875 8.6875 -23.492188 8.0625 -22.859375 C 7.445312 -22.234375 6.648438 -21.921875 5.671875 -21.921875 C 4.703125 -21.921875 3.910156 -22.234375 3.296875 -22.859375 C 2.679688 -23.492188 2.375 -24.296875 2.375 -25.265625 C 2.375 -26.242188 2.679688 -27.039062 3.296875 -27.65625 Z M 8.78125 0 L 2.515625 0 L 2.515625 -19.625 L 8.78125 -19.625 Z M 8.78125 0 "/></g></g></g><g fill="#5800ff" fill-opacity="1"><g transform="translate(37.431181, 45.149407)"><g><path d="M 15.375 -19.921875 C 17.53125 -19.921875 19.265625 -19.234375 20.578125 -17.859375 C 21.890625 -16.492188 22.546875 -14.671875 22.546875 -12.390625 L 22.546875 0 L 16.28125 0 L 16.28125 -10.640625 C 16.28125 -11.773438 15.96875 -12.675781 15.34375 -13.34375 C 14.726562 -14.007812 13.890625 -14.34375 12.828125 -14.34375 C 11.703125 -14.34375 10.78125 -13.976562 10.0625 -13.25 C 9.351562 -12.53125 8.9375 -11.570312 8.8125 -10.375 L 8.8125 0 L 2.515625 0 L 2.515625 -19.625 L 8.8125 -19.625 L 8.8125 -16.421875 C 10.195312 -18.703125 12.382812 -19.867188 15.375 -19.921875 Z M 15.375 -19.921875 "/></g></g></g><g fill="#5800ff" fill-opacity="1"><g transform="translate(59.867695, 45.149407)"><g><path d="M 11.109375 -7.578125 L 9 -5.359375 L 9 0 L 2.6875 0 L 2.6875 -27.03125 L 9 -27.03125 L 9 -12.75 L 15.484375 -19.625 L 22.625 -19.625 L 15.40625 -12.09375 L 22.84375 0 L 15.375 0 Z M 11.109375 -7.578125 "/></g></g></g></svg>